<?xml version="1.0" encoding="utf-8"?>
<!-- Generator: Adobe Illustrator 16.0.0, SVG Export Plug-In . SVG Version: 6.00 Build 0)  -->
<!DOCTYPE svg PUBLIC "-//W3C//DTD SVG 1.1//EN" "http://www.w3.org/Graphics/SVG/1.1/DTD/svg11.dtd">
<svg version="1.1" id="Layer_1" xmlns="http://www.w3.org/2000/svg" xmlns:xlink="http://www.w3.org/1999/xlink" x="0px" y="0px"
	 width="216px" height="216px" viewBox="0 0 216 216" enable-background="new 0 0 216 216" xml:space="preserve">
<g>
	<g>
		<path fill="#FAE100" d="M107.671,31.926c-42.47,0-76.899,34.428-76.899,76.898s34.43,76.898,76.899,76.898V31.926z"/>
		<g>
			<path d="M29.885,66.793c-0.269-0.174-0.373-0.545-0.182-0.842l4.174-6.486c2.13-3.311,6.571-4.297,9.828-2.201
				c3.338,2.146,4.307,6.615,2.194,9.898l-1.818,2.826l6.325,4.07c0.269,0.172,0.355,0.57,0.183,0.84l-2.044,3.176
				c-0.19,0.297-0.571,0.355-0.84,0.184L29.885,66.793z M41.796,64.902c0.745-1.158,0.453-2.715-0.758-3.494
				c-1.13-0.729-2.615-0.312-3.36,0.844l-1.646,2.559l4.118,2.648L41.796,64.902z"/>
			<path d="M44.375,46.973c-0.208-0.244-0.2-0.629,0.067-0.857l7.272-6.215c2.919-2.494,7.318-2.17,9.792,0.723
				c1.912,2.238,1.966,5.307,0.578,7.965l8.611,3.332c0.44,0.17,0.603,0.705,0.189,1.059l-3.235,2.764
				c-0.195,0.166-0.445,0.17-0.576,0.113l-8.743-3.682l-1.678,1.434l5.3,6.203c0.208,0.242,0.176,0.648-0.067,0.857l-2.895,2.473
				c-0.268,0.229-0.649,0.176-0.857-0.066L44.375,46.973z M57.613,47.443c0.997-0.852,1.059-2.504,0.186-3.525
				s-2.431-1.121-3.428-0.27l-3.6,3.076l3.242,3.795L57.613,47.443z"/>
			<path d="M72.484,50.578l1.177-23.721c0.017-0.215,0.164-0.447,0.372-0.531l0.297-0.119c0.208-0.086,0.475-0.021,0.636,0.121
				l17.382,16.184c0.334,0.314,0.253,0.795-0.191,0.977l-3.291,1.336c-0.534,0.217-0.843,0.135-1.339-0.32l-2.019-1.908
				l-8.064,3.275l-0.104,2.805c-0.004,0.416-0.186,0.904-0.779,1.145l-3.261,1.324C72.857,51.326,72.463,51.037,72.484,50.578z
				 M82.093,39.285l-4.24-3.977l-0.03,0.012l-0.237,5.795L82.093,39.285z"/>
			<path d="M94.483,25.773l-4.539,0.576c-0.349,0.045-0.639-0.209-0.68-0.527l-0.439-3.459c-0.041-0.316,0.177-0.635,0.526-0.68
				l14.092-1.789c0.349-0.043,0.639,0.209,0.68,0.527l0.439,3.459c0.041,0.318-0.177,0.635-0.526,0.68l-4.539,0.576l2.151,16.949
				c0.041,0.316-0.209,0.639-0.526,0.68l-3.809,0.482c-0.317,0.041-0.639-0.209-0.68-0.527L94.483,25.773z"/>
			<path d="M111.487,20.723c0.022-0.318,0.331-0.586,0.649-0.562l3.831,0.273c0.319,0.021,0.586,0.33,0.563,0.648l-1.506,21.133
				c-0.022,0.318-0.33,0.586-0.649,0.562l-3.831-0.273c-0.318-0.021-0.586-0.33-0.562-0.648L111.487,20.723z"/>
			<path d="M137.176,24.764c6.036,2.125,9.155,8.684,7.031,14.719c-1.381,3.924-4.897,6.689-8.929,7.543l1.748,7.467
				c0.093,0.508-0.318,0.906-0.802,0.736l-4.074-1.434c-0.242-0.086-0.34-0.289-0.377-0.473l-1.298-6.527
				c-0.373-0.098-0.735-0.225-0.946-0.299c-6.037-2.125-9.146-8.611-7.023-14.648C124.631,25.811,131.139,22.641,137.176,24.764z
				 M131.229,41.666c3.32,1.168,6.992-0.592,8.149-3.883c1.169-3.318-0.581-7.021-3.901-8.189c-3.29-1.158-6.973,0.633-8.141,3.953
				C126.178,36.836,127.938,40.508,131.229,41.666z"/>
			<path d="M156.951,35.174c0.204-0.246,0.609-0.283,0.855-0.078l3.027,2.514c0.271,0.225,0.283,0.611,0.079,0.857l-8.28,9.967
				c-1.432,1.723-1.297,4.164,0.45,5.617c1.772,1.473,4.222,1.178,5.653-0.545l8.281-9.969c0.204-0.246,0.585-0.305,0.855-0.08
				l3.027,2.516c0.246,0.205,0.283,0.609,0.079,0.855l-8.444,10.166c-3.107,3.74-8.834,4.225-12.724,0.994
				c-3.864-3.211-4.413-8.908-1.306-12.648L156.951,35.174z"/>
			<path d="M178.306,55.672c0.27-0.172,0.65-0.113,0.841,0.184l7.157,11.15c0.189,0.295,0.086,0.666-0.184,0.84l-2.936,1.885
				c-0.27,0.172-0.649,0.113-0.841-0.184l-4.788-7.461l-3.34,2.145l3.942,6.141c0.172,0.27,0.086,0.666-0.184,0.84l-2.936,1.885
				c-0.297,0.189-0.668,0.086-0.84-0.184l-3.942-6.141l-3.636,2.334l4.789,7.461c0.189,0.295,0.086,0.666-0.184,0.84l-2.936,1.885
				c-0.27,0.172-0.65,0.111-0.84-0.184l-7.157-11.15c-0.19-0.297-0.087-0.668,0.183-0.84L178.306,55.672z"/>
		</g>
		<g>
			<g>
				<path d="M43.821,134.891l-1.888-4.17c-0.145-0.32,0.012-0.672,0.304-0.805l3.178-1.438c0.292-0.133,0.66-0.018,0.806,0.303
					l5.86,12.947c0.145,0.32-0.012,0.672-0.304,0.805l-3.179,1.438c-0.291,0.133-0.659,0.018-0.805-0.303l-1.888-4.17l-15.57,7.049
					c-0.292,0.131-0.673-0.012-0.806-0.303l-1.583-3.5c-0.133-0.291,0.011-0.672,0.303-0.805L43.821,134.891z"/>
				<path d="M59.641,150.932c4.224,4.811,3.73,12.057-1.079,16.281c-4.81,4.223-12.012,3.734-16.235-1.076
					c-4.224-4.809-3.758-11.99,1.052-16.215C48.188,145.699,55.417,146.123,59.641,150.932z M46.174,162.758
					c2.323,2.645,6.388,2.908,9.009,0.607c2.646-2.324,2.934-6.41,0.61-9.055c-2.302-2.621-6.391-2.863-9.036-0.541
					C44.136,156.072,43.872,160.137,46.174,162.758z"/>
				<path d="M68.836,161.166c0.15-0.281,0.525-0.371,0.808-0.221l0.706,0.377l5.474,16.855l0.028,0.014l5.352-10.021
					c0.151-0.281,0.513-0.414,0.823-0.25l3.388,1.811c0.282,0.15,0.4,0.539,0.25,0.822l-10.146,18.998
					c-0.15,0.281-0.525,0.373-0.808,0.221l-0.451-0.24c-0.085-0.045-0.266-0.25-0.292-0.338l-5.165-17.16l-0.028-0.016
					l-5.623,10.529c-0.151,0.281-0.513,0.416-0.823,0.25l-3.359-1.795c-0.282-0.15-0.4-0.541-0.25-0.822L68.836,161.166z"/>
				<path d="M95.551,191.828l1.652-2.566c0.279-0.4,0.883-0.303,1.097-0.131c0.125,0.072,2.329,1.896,4.438,2.016
					c1.278,0.072,2.25-0.674,2.313-1.791c0.076-1.344-0.983-2.43-3.107-3.414c-2.686-1.244-6.016-3.58-5.797-7.414
					c0.18-3.164,2.821-6.219,7.742-5.939c3.322,0.189,5.782,2.027,6.701,2.785c0.371,0.246,0.274,0.816,0.134,1.033l-1.77,2.367
					c-0.243,0.34-0.835,0.594-1.11,0.354c-0.278-0.176-2.511-2.066-4.46-2.176c-1.15-0.066-2.057,0.652-2.105,1.516
					c-0.067,1.182,0.841,2.131,3.307,3.297c2.436,1.131,6.287,3.307,6.04,7.65c-0.187,3.291-3.22,6.453-7.916,6.186
					c-4.154-0.234-6.356-2.092-7.05-2.867C95.358,192.395,95.27,192.26,95.551,191.828z"/>
				<path d="M114.625,173.609c-0.066-0.314,0.125-0.648,0.47-0.721l7.546-1.594c3.851-0.812,7.674,1.652,8.474,5.441
					c0.819,3.881-1.676,7.711-5.496,8.518l-3.287,0.693l1.553,7.359c0.065,0.312-0.156,0.654-0.47,0.719l-3.694,0.781
					c-0.345,0.072-0.655-0.156-0.721-0.471L114.625,173.609z M124.341,180.748c1.346-0.283,2.249-1.586,1.951-2.994
					c-0.277-1.316-1.616-2.08-2.962-1.797l-2.975,0.629l1.011,4.791L124.341,180.748z"/>
				<path d="M140.103,163.877c5.509-3.256,12.536-1.428,15.793,4.082c3.256,5.508,1.438,12.492-4.07,15.748
					c-5.509,3.256-12.477,1.465-15.732-4.043C132.836,174.156,134.594,167.133,140.103,163.877z M149.22,179.301
					c3.03-1.791,4.043-5.736,2.269-8.738c-1.791-3.029-5.751-4.07-8.78-2.279c-3.003,1.775-4,5.746-2.209,8.775
					C142.273,180.061,146.218,181.074,149.22,179.301z"/>
				<path d="M152.118,156.65c-0.245-0.205-0.3-0.588-0.073-0.855l6.169-7.314c2.476-2.936,6.869-3.332,9.78-0.877
					c2.25,1.898,2.802,4.918,1.863,7.768l9.039,1.889c0.462,0.098,0.709,0.598,0.358,1.014l-2.743,3.254
					c-0.165,0.195-0.411,0.238-0.551,0.205l-9.226-2.213l-1.423,1.688l6.236,5.26c0.245,0.207,0.279,0.613,0.073,0.857l-2.455,2.91
					c-0.227,0.27-0.612,0.279-0.856,0.074L152.118,156.65z M165.259,154.967c0.846-1.002,0.639-2.643-0.389-3.51
					c-1.027-0.865-2.581-0.711-3.427,0.291l-3.054,3.621l3.816,3.217L165.259,154.967z"/>
				<path d="M169.521,139.33l-1.876,4.176c-0.145,0.32-0.512,0.436-0.804,0.305l-3.182-1.43c-0.292-0.133-0.45-0.484-0.306-0.805
					l5.826-12.961c0.145-0.32,0.513-0.436,0.804-0.305l3.183,1.43c0.291,0.131,0.449,0.482,0.305,0.805l-1.876,4.174l15.587,7.008
					c0.292,0.131,0.437,0.512,0.306,0.803l-1.575,3.504c-0.131,0.291-0.512,0.436-0.804,0.305L169.521,139.33z"/>
			</g>
		</g>
	</g>
	<path fill="#040305" d="M141.413,85.16c-1.063-2.053-3.419-3.432-5.86-3.432c-2.066,0-3.881,0.955-5.105,2.69
		c-3.508,4.969-7.941,6.521-13.078,4.718c0.011,0,0.021,0.002,0.032,0.002c0,0,0,0,0.001,0c4.504,0,8.286-3.409,8.795-7.931
		c0.553-4.896-2.943-9.336-7.796-9.899c-4.929-0.583-9.267,3.014-9.814,7.871c-0.258,2.271,0.364,4.438,1.581,6.173
		c-4.28-2.451-8.609-3.707-12.879-3.707c-7.542,0-14.527,4.012-19.668,11.297c-1.288,1.825-1.483,3.921-0.535,5.751
		c1.064,2.053,3.419,3.432,5.86,3.432c2.067,0,3.879-0.954,5.102-2.688c2.922-4.139,6.444-5.941,10.552-5.355
		c-1.129,1.998-2.797,4.96-4.755,8.436c-6.296,11.178-15.811,28.07-19.636,34.64c-1.128,1.939-1.165,4.112-0.102,5.961
		c1.146,1.993,3.365,3.281,5.652,3.282c0,0,0,0,0.001,0c2.093,0,3.932-1.098,5.042-3.009l6.04-10.378
		c2.059-3.535,4.118-7.071,6.175-10.609c0.181,0.086,0.382,0.182,0.606,0.288c1.572,0.746,3.847,1.826,5.731,2.83l-6.271,3.81
		c-2.429,1.476-3.462,4.092-2.697,6.829c0.781,2.789,3.171,4.737,5.813,4.737c1.07,0,2.122-0.309,3.125-0.918
		c1.459-0.886,13.551-8.254,15.697-10.512l0.029,0.025c2.22-2.577,2.014-5.926-0.502-8.146c-3.117-2.744-6.438-5.107-9.891-7.041
		c2.353-4.559,4.635-8.775,6.936-12.813c1.883,0.471,3.767,0.709,5.616,0.709c7.541,0,14.525-4.01,19.667-11.292
		C142.166,89.086,142.361,86.99,141.413,85.16z M112.064,79.573c0.311-2.75,2.598-4.823,5.319-4.823
		c0.203,0,0.409,0.012,0.614,0.035c2.94,0.342,5.059,3.047,4.721,6.031c-0.332,2.954-2.965,5.124-5.934,4.787
		C113.844,85.264,111.727,82.559,112.064,79.573z M138.018,88.893c-4.531,6.418-10.344,9.811-16.808,9.811
		c-1.943,0-3.942-0.313-5.94-0.934l-1.336-0.414l-0.698,1.213c-2.814,4.89-5.587,10.016-8.477,15.671l-0.792,1.551l1.547,0.8
		c3.752,1.94,7.359,4.425,10.721,7.385c1.514,1.335,0.619,2.707,0.164,3.234l-0.104,0.12c-1.273,1.141-9.972,6.736-14.788,9.659
		c-0.448,0.272-0.888,0.41-1.308,0.41c-1.203,0-2.139-1.098-2.442-2.181c-0.196-0.702-0.31-2.012,1.143-2.894l11.098-6.744
		l-2.244-1.53c-2.044-1.393-6.008-3.274-8.631-4.519c-0.755-0.359-1.534-0.729-1.79-0.865l-1.5-1.191l-1.017,1.75
		c-2.331,4.012-4.666,8.02-7,12.028l-6.042,10.38c-0.489,0.841-1.167,1.268-2.016,1.268h0c-1.024-0.001-2.101-0.629-2.618-1.527
		c-0.44-0.766-0.409-1.592,0.093-2.455c3.838-6.591,13.36-23.496,19.661-34.683c2.811-4.99,5.024-8.921,5.896-10.45l1.067-1.87
		l-2.049-0.662c-1.602-0.518-3.185-0.78-4.706-0.78c-4.586,0-8.707,2.402-11.916,6.946c-0.564,0.801-1.319,1.206-2.242,1.206
		c-1.131,0-2.289-0.648-2.752-1.543c-0.345-0.665-0.251-1.359,0.287-2.122c4.532-6.421,10.344-9.814,16.809-9.814
		c3.834,0,7.771,1.197,11.708,3.562c0.231,0.138,0.842,0.483,1.476,0.843c0.686,0.389,1.4,0.793,1.654,0.946
		c3.198,1.918,6.312,2.891,9.258,2.891c0,0,0.001,0,0.002,0c4.588,0,8.711-2.404,11.92-6.95c0.566-0.802,1.322-1.209,2.246-1.209
		c1.133,0,2.29,0.648,2.753,1.542C138.65,87.437,138.557,88.13,138.018,88.893z"/>
</g>
</svg>
